<svg width="82" height="82" viewBox="0 0 82 82" fill="none" xmlns="http://www.w3.org/2000/svg">
<path d="M15.027 9.40593L21.2295 3.2034L47.2026 29.1765L41.0001 35.379L15.027 9.40593Z" fill="#005EFF"/>
<path d="M47.2026 29.1765L41.0001 22.974L51.2731 12.701L57.4756 18.9035L47.2026 29.1765Z" fill="#005EFF"/>
<path d="M58.8324 11.3442C61.2943 13.8063 61.2943 17.7983 58.8324 20.2603C56.3702 22.7225 52.3783 22.7225 49.9163 20.2603C47.4541 17.7983 47.4541 13.8063 49.9163 11.3442C52.3783 8.88208 56.3702 8.88208 58.8324 11.3442Z" fill="#005EFF"/>
<path d="M22.5863 1.84659C25.0484 4.30872 25.0484 8.30059 22.5863 10.7627C20.1242 13.2249 16.1323 13.2249 13.6702 10.7627C11.208 8.30059 11.208 4.30872 13.6702 1.84659C16.1323 -0.615531 20.1242 -0.615531 22.5863 1.84659Z" fill="#005EFF"/>
<path d="M45.4581 24.7185C47.9203 27.1805 47.9203 31.1725 45.4581 33.6346C42.9961 36.0967 39.0041 36.0967 36.542 33.6346C34.0799 31.1725 34.0799 27.1805 36.542 24.7185C39.0041 22.2563 36.542 33.6346 45.4581 24.7185Z" fill="#005EFF"/>
<path d="M9.40593 66.9731L3.2034 60.7707L29.1765 34.7976L35.379 41.0001L9.40593 66.9731Z" fill="#005EFF"/>
<path d="M29.1765 34.7976L22.974 41.0001L12.701 30.7272L18.9035 24.5246L29.1765 34.7976Z" fill="#005EFF"/>
<path d="M11.3442 23.1678C13.8063 20.7057 17.7983 20.7057 20.2603 23.1678C22.7225 25.6299 22.7225 29.6218 20.2603 32.084C17.7983 34.5461 13.8063 34.5461 11.3442 32.084C8.88208 29.6218 8.88208 25.6299 11.3442 23.1678Z" fill="#005EFF"/>
<path d="M1.84659 59.4139C4.30872 56.9517 8.30059 56.9517 10.7627 59.4139C13.2249 61.8762 13.2249 65.8681 10.7627 68.3301C8.30059 70.792 4.30872 70.792 1.84659 68.3301C-0.615531 65.8681 -0.615531 61.8762 1.84659 59.4139Z" fill="#005EFF"/>
<path d="M24.7185 36.542C27.1805 34.0799 31.1725 34.0799 33.6346 36.542C36.0967 39.0041 36.0967 42.9961 33.6346 45.4581C31.1725 47.9203 27.1805 47.9203 24.7185 45.4581C22.2563 42.9961 33.6346 45.4581 24.7185 36.542Z" fill="#005EFF"/>
<path d="M66.9731 72.5942L60.7707 78.7966L34.7976 52.8237L41.0001 46.6211L66.9731 72.5942Z" fill="#005EFF"/>
<path d="M34.7976 52.8237L41.0001 59.0262L30.7272 69.2989L24.5246 63.0965L34.7976 52.8237Z" fill="#005EFF"/>
<path d="M23.1678 70.6559C20.7057 68.1939 20.7057 64.2021 23.1678 61.7395C25.6299 59.2777 29.6218 59.2777 32.084 61.7395C34.5461 64.2021 34.5461 68.1939 32.084 70.6559C29.6218 73.1178 25.6299 73.1178 23.1678 70.6559Z" fill="#005EFF"/>
<path d="M59.4139 80.1535C56.9517 77.6916 56.9517 73.6997 59.4139 71.2372C61.8762 68.7752 65.8681 68.7752 68.3301 71.2372C70.792 73.6997 70.792 77.6916 68.3301 80.1535C65.8681 82.6155 61.8762 82.6155 59.4139 80.1535Z" fill="#005EFF"/>
<path d="M36.542 57.2818C34.0799 54.8196 34.0799 50.8277 36.542 48.3656C39.0041 45.9035 42.9961 45.9035 45.4581 48.3656C47.9203 50.8277 47.9203 54.8196 45.4581 57.2818C42.9961 59.7439 45.4581 48.3656 36.542 57.2818Z" fill="#005EFF"/>
<path d="M72.5942 15.027L78.7966 21.2295L52.8237 47.2026L46.6211 41.0001L72.5942 15.027Z" fill="#005EFF"/>
<path d="M52.8237 47.2026L59.0262 41.0001L69.2989 51.2731L63.0965 57.4756L52.8237 47.2026Z" fill="#005EFF"/>
<path d="M70.6559 58.8324C68.1939 61.2943 64.2021 61.2943 61.7395 58.8324C59.2777 56.3702 59.2777 52.3783 61.7395 49.9163C64.2021 47.4541 68.1939 47.4541 70.6559 49.9163C73.1178 52.3783 73.1178 56.3702 70.6559 58.8324Z" fill="#005EFF"/>
<path d="M80.1535 22.5863C77.6916 25.0484 73.6997 25.0484 71.2372 22.5863C68.7752 20.1242 68.7752 16.1323 71.2372 13.6702C73.6997 11.208 77.6916 11.208 80.1535 13.6702C82.6155 16.1323 82.6155 20.1242 80.1535 22.5863Z" fill="#005EFF"/>
<path d="M57.2818 45.4581C54.8196 47.9203 50.8277 47.9203 48.3656 45.4581C45.9035 42.9961 45.9035 39.0041 48.3656 36.542C50.8277 34.0799 54.8196 34.0799 57.2818 36.542C59.7439 39.0041 48.3656 36.542 57.2818 45.4581Z" fill="#005EFF"/>
</svg>
