<?xml version="1.0" encoding="UTF-8"?><svg xmlns="http://www.w3.org/2000/svg" xmlns:xlink="http://www.w3.org/1999/xlink" contentScriptType="text/ecmascript" width="375" zoomAndPan="magnify" contentStyleType="text/css" viewBox="0 0 375 374.999991" height="374.999991" preserveAspectRatio="xMidYMid meet" version="1.0"><defs><clipPath id="clip-0"><path d="M 10 10.171875 L 365 10.171875 L 365 364 L 10 364 Z M 10 10.171875 " clip-rule="nonzero"/></clipPath></defs><g clip-path="url(#clip-0)"><path fill="rgb(78.819275%, 9.01947%, 22.749329%)" d="M 97.539062 242.015625 C 100.988281 245.472656 100.988281 251.101562 97.539062 254.527344 L 45.097656 306.980469 C 41.648438 310.429688 36.019531 310.429688 32.578125 306.980469 L 12.605469 287.023438 C 9.167969 283.585938 9.167969 277.9375 12.605469 274.5 L 50.039062 237.058594 C 53.480469 233.632812 56.292969 226.824219 56.292969 221.953125 L 56.292969 152.085938 C 56.292969 147.210938 53.480469 140.402344 50.039062 136.96875 L 12.605469 99.542969 C 9.167969 96.097656 9.167969 90.457031 12.605469 87.019531 L 32.578125 67.0625 C 36.019531 63.613281 41.65625 63.613281 45.097656 67.0625 L 97.539062 119.515625 C 100.988281 122.949219 100.988281 128.578125 97.539062 132.035156 L 92.597656 136.976562 C 89.164062 140.410156 86.351562 147.21875 86.351562 152.089844 L 86.351562 221.960938 C 86.351562 226.832031 89.164062 233.640625 92.597656 237.074219 Z M 236.726562 281.113281 C 233.285156 284.546875 226.484375 287.371094 221.609375 287.371094 L 151.753906 287.371094 C 146.878906 287.371094 140.070312 284.542969 136.628906 281.113281 L 131.695312 276.160156 C 128.238281 272.722656 122.609375 272.722656 119.160156 276.160156 L 66.726562 328.609375 C 63.277344 332.046875 63.277344 337.703125 66.726562 341.140625 L 86.683594 361.105469 C 90.132812 364.539062 95.761719 364.539062 99.210938 361.105469 L 136.628906 323.65625 C 140.078125 320.21875 146.878906 317.398438 151.753906 317.398438 L 221.609375 317.398438 C 226.476562 317.398438 233.277344 320.21875 236.726562 323.65625 L 274.160156 361.105469 C 277.601562 364.539062 283.238281 364.539062 286.679688 361.105469 L 306.636719 341.140625 C 310.078125 337.679688 310.078125 332.046875 306.636719 328.609375 L 254.1875 276.160156 C 250.753906 272.722656 245.117188 272.722656 241.667969 276.160156 Z M 282.011719 137.511719 C 285.453125 140.960938 288.285156 147.773438 288.285156 152.644531 L 288.285156 222.488281 C 288.285156 227.359375 285.460938 234.167969 282.011719 237.621094 L 277.0625 242.574219 C 273.621094 246.011719 273.621094 251.640625 277.0625 255.097656 L 329.523438 307.539062 C 332.964844 310.984375 338.601562 310.984375 342.042969 307.539062 L 362 287.566406 C 365.449219 284.132812 365.449219 278.511719 362 275.046875 L 324.582031 237.628906 C 321.140625 234.183594 318.308594 227.375 318.308594 222.496094 L 318.316406 152.652344 C 318.316406 147.777344 321.132812 140.96875 324.582031 137.519531 L 362 100.085938 C 365.449219 96.644531 365.449219 90.992188 362 87.582031 L 342.042969 67.609375 C 338.601562 64.148438 332.964844 64.148438 329.523438 67.609375 L 277.0625 120.050781 C 273.621094 123.507812 273.621094 129.136719 277.0625 132.574219 Z M 137.894531 93.464844 C 141.328125 90.03125 148.128906 87.210938 153.007812 87.210938 L 222.859375 87.210938 C 227.722656 87.210938 234.523438 90.039062 237.972656 93.464844 L 242.929688 98.421875 C 246.363281 101.878906 252.007812 101.878906 255.441406 98.421875 L 307.894531 45.96875 C 311.335938 42.535156 311.335938 36.882812 307.894531 33.441406 L 287.9375 13.5 C 284.492188 10.042969 278.851562 10.042969 275.414062 13.5 L 237.972656 50.917969 C 234.523438 54.351562 227.722656 57.175781 222.859375 57.175781 L 153.007812 57.175781 C 148.128906 57.175781 141.328125 54.351562 137.894531 50.917969 L 100.460938 13.5 C 97.019531 10.0625 91.382812 10.0625 87.9375 13.5 L 67.980469 33.457031 C 64.539062 36.890625 64.539062 42.527344 67.980469 45.984375 L 120.417969 98.414062 C 123.867188 101.871094 129.503906 101.871094 132.945312 98.414062 Z M 137.894531 93.464844 " fill-opacity="1" fill-rule="nonzero"/></g></svg>