<?xml version="1.0" encoding="UTF-8"?><svg xmlns="http://www.w3.org/2000/svg" xmlns:xlink="http://www.w3.org/1999/xlink" contentScriptType="text/ecmascript" width="375" zoomAndPan="magnify" contentStyleType="text/css" viewBox="0 0 375 374.999991" height="374.999991" preserveAspectRatio="xMidYMid meet" version="1.0"><defs><clipPath id="clip-0"><path d="M 124.136719 95.414062 L 253.886719 95.414062 L 253.886719 224.414062 L 124.136719 224.414062 Z M 124.136719 95.414062 " clip-rule="nonzero"/></clipPath></defs><g clip-path="url(#clip-0)"><path fill="rgb(78.819275%, 9.01947%, 22.749329%)" d="M 156.3125 180.210938 C 157.570312 181.476562 157.570312 183.535156 156.3125 184.789062 L 137.210938 203.972656 C 135.957031 205.234375 133.90625 205.234375 132.652344 203.972656 L 125.378906 196.675781 C 124.125 195.417969 124.125 193.351562 125.378906 192.09375 L 139.011719 178.402344 C 140.265625 177.148438 141.289062 174.65625 141.289062 172.875 L 141.289062 147.320312 C 141.289062 145.539062 140.265625 143.046875 139.011719 141.792969 L 125.378906 128.101562 C 124.125 126.84375 124.125 124.78125 125.378906 123.523438 L 132.652344 116.222656 C 133.90625 114.960938 135.957031 114.960938 137.210938 116.222656 L 156.3125 135.410156 C 157.570312 136.664062 157.570312 138.722656 156.3125 139.988281 L 154.511719 141.792969 C 153.261719 143.050781 152.238281 145.542969 152.238281 147.324219 L 152.238281 172.878906 C 152.238281 174.660156 153.261719 177.148438 154.511719 178.40625 Z M 207.003906 194.511719 C 205.75 195.769531 203.273438 196.800781 201.5 196.800781 L 176.058594 196.800781 C 174.28125 196.800781 171.800781 195.765625 170.550781 194.511719 L 168.753906 192.699219 C 167.492188 191.445312 165.441406 191.445312 164.1875 192.699219 L 145.089844 211.886719 C 143.832031 213.140625 143.832031 215.210938 145.089844 216.46875 L 152.359375 223.769531 C 153.613281 225.027344 155.664062 225.027344 156.921875 223.769531 L 170.550781 210.074219 C 171.804688 208.816406 174.28125 207.785156 176.058594 207.785156 L 201.5 207.785156 C 203.273438 207.785156 205.75 208.816406 207.003906 210.074219 L 220.640625 223.769531 C 221.890625 225.027344 223.945312 225.027344 225.199219 223.769531 L 232.46875 216.46875 C 233.722656 215.203125 233.722656 213.140625 232.46875 211.886719 L 213.363281 192.699219 C 212.113281 191.445312 210.0625 191.445312 208.804688 192.699219 Z M 223.5 141.992188 C 224.753906 143.253906 225.78125 145.742188 225.78125 147.523438 L 225.78125 173.070312 C 225.78125 174.851562 224.753906 177.34375 223.5 178.605469 L 221.695312 180.417969 C 220.441406 181.675781 220.441406 183.734375 221.695312 184.996094 L 240.800781 204.179688 C 242.054688 205.4375 244.109375 205.4375 245.363281 204.179688 L 252.632812 196.875 C 253.886719 195.617188 253.886719 193.5625 252.632812 192.292969 L 239.003906 178.609375 C 237.75 177.347656 236.71875 174.859375 236.71875 173.074219 L 236.722656 147.527344 C 236.722656 145.746094 237.746094 143.253906 239.003906 141.992188 L 252.632812 128.300781 C 253.886719 127.042969 253.886719 124.976562 252.632812 123.726562 L 245.363281 116.421875 C 244.109375 115.160156 242.054688 115.160156 240.800781 116.421875 L 221.695312 135.605469 C 220.441406 136.871094 220.441406 138.929688 221.695312 140.183594 Z M 171.007812 125.882812 C 172.261719 124.625 174.738281 123.59375 176.515625 123.59375 L 201.953125 123.59375 C 203.726562 123.59375 206.203125 124.628906 207.460938 125.882812 L 209.265625 127.695312 C 210.515625 128.957031 212.570312 128.957031 213.820312 127.695312 L 232.925781 108.507812 C 234.179688 107.253906 234.179688 105.1875 232.925781 103.925781 L 225.65625 96.632812 C 224.402344 95.367188 222.347656 95.367188 221.097656 96.632812 L 207.460938 110.320312 C 206.203125 111.574219 203.726562 112.609375 201.953125 112.609375 L 176.515625 112.609375 C 174.738281 112.609375 172.261719 111.574219 171.007812 110.320312 L 157.375 96.632812 C 156.121094 95.375 154.070312 95.375 152.816406 96.632812 L 145.546875 103.933594 C 144.292969 105.1875 144.292969 107.25 145.546875 108.515625 L 164.644531 127.691406 C 165.902344 128.957031 167.953125 128.957031 169.207031 127.691406 Z M 171.007812 125.882812 " fill-opacity="1" fill-rule="nonzero"/></g></svg>